<svg width="256" height="256" viewBox="0 0 256 256" fill="none" xmlns="http://www.w3.org/2000/svg">
  <defs>
    <linearGradient id="bgGrad" x1="0" y1="0" x2="256" y2="256" gradientUnits="userSpaceOnUse">
      <stop offset="0%" stop-color="#1d4ed8"/>
      <stop offset="60%" stop-color="#2563eb"/>
      <stop offset="100%" stop-color="#0f766e"/>
    </linearGradient>
    <linearGradient id="barGrad" x1="0" y1="0" x2="0" y2="256" gradientUnits="userSpaceOnUse">
      <stop offset="0%" stop-color="#93c5fd"/>
      <stop offset="100%" stop-color="#5eead4"/>
    </linearGradient>
  </defs>

  <rect width="256" height="256" rx="56" fill="url(#bgGrad)"/>

  <path d="M 48 128 A 80 80 0 0 1 128 48" stroke="#60a5fa" stroke-width="10" stroke-linecap="round" fill="none" opacity="0.5"/>
  <path d="M 62 128 A 66 66 0 0 1 128 62" stroke="#93c5fd" stroke-width="8" stroke-linecap="round" fill="none" opacity="0.6"/>
  <path d="M 78 128 A 50 50 0 0 1 128 78" stroke="#bfdbfe" stroke-width="6" stroke-linecap="round" fill="none" opacity="0.7"/>

  <path d="M 208 128 A 80 80 0 0 0 128 48" stroke="#60a5fa" stroke-width="10" stroke-linecap="round" fill="none" opacity="0.5"/>
  <path d="M 194 128 A 66 66 0 0 0 128 62" stroke="#93c5fd" stroke-width="8" stroke-linecap="round" fill="none" opacity="0.6"/>
  <path d="M 178 128 A 50 50 0 0 0 128 78" stroke="#bfdbfe" stroke-width="6" stroke-linecap="round" fill="none" opacity="0.7"/>

  <rect x="38" y="158" width="14" height="20" rx="7" fill="url(#barGrad)" opacity="0.9"/>
  <rect x="56" y="144" width="14" height="34" rx="7" fill="url(#barGrad)" opacity="0.85"/>
  <rect x="74" y="128" width="14" height="50" rx="7" fill="url(#barGrad)" opacity="0.8"/>
  <rect x="92" y="112" width="14" height="66" rx="7" fill="url(#barGrad)" opacity="0.75"/>

  <rect x="204" y="158" width="14" height="20" rx="7" fill="url(#barGrad)" opacity="0.9"/>
  <rect x="186" y="144" width="14" height="34" rx="7" fill="url(#barGrad)" opacity="0.85"/>
  <rect x="168" y="128" width="14" height="50" rx="7" fill="url(#barGrad)" opacity="0.8"/>
  <rect x="150" y="112" width="14" height="66" rx="7" fill="url(#barGrad)" opacity="0.75"/>

  <circle cx="128" cy="128" r="14" fill="white" opacity="0.95"/>
  <circle cx="128" cy="128" r="8" fill="#5eead4" opacity="0.9"/>

  <circle cx="210" cy="210" r="10" fill="#5eead4" opacity="0.8"/>
</svg>
